<svg id="Group_11" data-name="Group 11" xmlns="http://www.w3.org/2000/svg" width="118" height="28" viewBox="0 0 118 28">
  <g id="Group_10" data-name="Group 10">
    <circle id="Oval" cx="7" cy="7" r="7" transform="translate(0 14)" fill="#4d96a9"/>
    <circle id="Oval_Copy" data-name="Oval Copy" cx="7" cy="7" r="7" transform="translate(14)" fill="#855fb1"/>
  </g>
  <g id="meet_2" data-name="meet 2" transform="translate(38.716 2.2)">
    <path id="meet" d="M52.793,22.32A8.781,8.781,0,0,1,49.9,20.441a8.948,8.948,0,0,1-1.929-2.834,8.655,8.655,0,0,1-.711-3.483A9.052,9.052,0,0,1,49.79,7.807a8.46,8.46,0,0,1,2.767-1.878,8.651,8.651,0,0,1,3.43-.68,7.991,7.991,0,0,1,3.382.713A8.237,8.237,0,0,1,62.04,7.9a8.853,8.853,0,0,1,1.755,2.965,10.841,10.841,0,0,1,.632,3.741v1.3H52.509a4.511,4.511,0,0,0,1.58,1.96,4.267,4.267,0,0,0,2.529.76,5.085,5.085,0,0,0,1.9-.34,4.125,4.125,0,0,0,1.453-.955l3.383,3.077A9.928,9.928,0,0,1,56.365,23,9.4,9.4,0,0,1,52.793,22.32Zm-18.809,0a8.762,8.762,0,0,1-2.893-1.879,8.933,8.933,0,0,1-1.929-2.834,8.639,8.639,0,0,1-.711-3.483,8.978,8.978,0,0,1,.68-3.482,8.886,8.886,0,0,1,1.85-2.835,8.456,8.456,0,0,1,2.766-1.878,8.658,8.658,0,0,1,3.43-.68,8,8,0,0,1,3.383.713A8.247,8.247,0,0,1,43.231,7.9a8.836,8.836,0,0,1,1.754,2.965,10.841,10.841,0,0,1,.633,3.741v1.3H33.7a4.513,4.513,0,0,0,1.581,1.96,4.267,4.267,0,0,0,2.529.76,5.081,5.081,0,0,0,1.9-.34,4.137,4.137,0,0,0,1.454-.955l3.382,3.077a10.694,10.694,0,0,1-3.24,1.976A10.714,10.714,0,0,1,37.556,23,9.4,9.4,0,0,1,33.984,22.32Zm36.75-.794A5.184,5.184,0,0,1,69.2,17.461V9.913H65.818V5.54H69.2V1.134L74.321,0V5.54H79V9.913H74.321v6.512a2.162,2.162,0,0,0,.491,1.6,2.48,2.48,0,0,0,1.723.469,7.651,7.651,0,0,0,1.138-.081,8.123,8.123,0,0,0,1.169-.275v4.244a10.317,10.317,0,0,1-1.77.373,13.8,13.8,0,0,1-1.8.146A6.589,6.589,0,0,1,70.734,21.526Zm-49.68,1.15V12.829a3.32,3.32,0,0,0-.743-2.252,2.482,2.482,0,0,0-1.976-.859,3.481,3.481,0,0,0-1.55.34,3.567,3.567,0,0,0-1.2.956c.021.173.037.351.047.535s.016.373.016.567V22.676H10.527V12.829a3.316,3.316,0,0,0-.743-2.252,2.482,2.482,0,0,0-1.976-.859,3.681,3.681,0,0,0-1.534.308,3.015,3.015,0,0,0-1.154.923V22.676H0V5.54H5.121v1.1A6.271,6.271,0,0,1,7.065,5.572a6.944,6.944,0,0,1,2.229-.356,6.3,6.3,0,0,1,2.829.632,6.035,6.035,0,0,1,2.134,1.733,6.966,6.966,0,0,1,2.4-1.75,7.412,7.412,0,0,1,3.035-.616A6.1,6.1,0,0,1,24.358,7.16a6.968,6.968,0,0,1,1.818,4.956V22.676Z" transform="translate(0.284 0.8)" fill="#28283d"/>
  </g>
</svg>
